<?xml version="1.0" encoding="UTF-8"?>
<svg id="Layer_1" data-name="Layer 1" xmlns="http://www.w3.org/2000/svg" viewBox="0 0 1080 1080">
  <defs>
    <style>
      .cls-1 {
        fill: #cf0001;
        stroke-width: 0px;
      }
    </style>
  </defs>
  <path class="cls-1" d="M667.52,553.94c9.74-10.19,9.59-26.4-.42-36.41l-1.34-1.34-1.33,1.34c-9.93,9.93-10.15,25.94-.68,36.15v17.14c0,38.21-13.96,73.22-37.06,100.18-6.57,0-12.81,2.45-17.66,6.95-4.86,4.5-7.78,10.57-8.27,17.15-25.57,18.84-57.14,29.98-91.27,29.98-85.05,0-154.24-69.19-154.24-154.25,0-35.44,11.51-65.3,33.28-86.37,19.37-18.75,45.31-29.07,73.04-29.07,11.07,0,25.2.72,36.31,6.36,7.3,3.7,15.16,12.89,15.16,21.29v22.2h-22.19c-12.24,0-22.2-9.96-22.2-22.2,0-1.93.25-3.84.73-5.69.27-1-.33-2.04-1.34-2.3-1-.26-2.04.33-2.3,1.34-.58,2.16-.86,4.4-.86,6.65,0,.88.05,1.75.13,2.61,0,0,0,0,0,0-24.47,4.32-42.14,26.02-41.29,50.97.44,12.99,5.84,25.13,15.19,34.19,6.58,6.37,14.63,10.72,23.36,12.76-8.64,4.21-14.6,13.07-14.6,23.31,0,13.67,10.64,24.89,24.08,25.84.92,13.18,11.73,23.67,25.05,24.07,0,0,.01.01.02.01.24.1.51.16.78.16,20.96,0,39.02-6.47,52.24-18.7,14.21-13.16,21.71-32.26,21.71-55.26v-78.4c4.58-4.85,7.08-11.16,7.08-17.84s-2.5-12.99-7.08-17.84v-6.19c0-19.32,5.83-37.49,16.01-52.63,0,0,0,0,0,0,.34.07.69.11,1.06.11,2.79,0,5.05-2.26,5.05-5.05,0-.88-.22-1.7-.62-2.42,0,0,0,0,0,0,9.06-10.99,20.64-19.93,34.01-25.92,0,0,0,0,0,0,3.01,2.13,12.59,8.32,22.41,8.32,2.16,0,4.34-.3,6.46-1.01,13.45-4.51,18.74-23.56,18.96-24.37l.33-1.21-.99-.77c-.66-.51-16.37-12.52-29.82-8.01-12.03,4.04-17.53,19.7-18.71,23.54h0c-13.99,6.23-26.09,15.57-35.55,27.05,0,0,0,0,0,0-.48-.15-1-.24-1.54-.24-2.79,0-5.05,2.26-5.05,5.05,0,1.05.32,2.03.88,2.84h0c-10.6,15.74-16.66,34.64-16.66,54.74v6.19c-4.58,4.85-7.08,11.15-7.08,17.84s2.5,12.99,7.08,17.84v76.42h-86.27l-7.82.09s-.08,0-.11,0v-.15c-.72,0-1.42.04-2.12.09-24.01-1.13-43.14-20.3-43.97-44.57-.79-23.07,15.55-43.12,38.17-47.12,2.84,11.27,13.05,19.63,25.19,19.63h25.96v-25.97c0-.83-.06-1.67-.19-2.51,0,0,0,0,0,0v-17.81c0-18.38-14.2-33.5-32.21-34.99-.21-1.3-1.33-2.29-2.7-2.29-1.51,0-2.74,1.23-2.74,2.74s1.23,2.74,2.74,2.74c.99,0,1.85-.53,2.33-1.32,17.14,1.31,30.68,15.66,30.68,33.12v11.55c-.75-1.65-1.68-3.26-2.73-4.79,0,0,0,0,0,0v-5.52c0-15.86-12.18-28.93-27.68-30.36-.35-1.12-1.37-1.93-2.61-1.93-1.51,0-2.74,1.23-2.74,2.74s1.23,2.74,2.74,2.74c1.13,0,2.1-.69,2.52-1.66,14.5,1.38,25.88,13.62,25.88,28.47v3.04s0,0,0,0c-1.06-1.28-2.21-2.47-3.41-3.58-.63-12.33-10.23-22.33-22.38-23.59-.35-1.12-1.37-1.93-2.61-1.93-1.51,0-2.74,1.23-2.74,2.74s1.23,2.74,2.74,2.74c1.13,0,2.1-.68,2.52-1.66,10.57,1.15,19.03,9.45,20.41,19.95-1.65-1.31-3.37-2.42-5.07-3.28-11.82-5.99-26.52-6.76-38.01-6.76-28.71,0-55.58,10.71-75.66,30.13-22.53,21.8-34.43,52.61-34.43,89.09,0,87.13,70.88,158.02,158.02,158.02,35.02,0,67.41-11.45,93.63-30.8.13,0,.27,0,.4,0,6.58,0,12.83-2.45,17.69-6.95,4.98-4.62,7.91-10.86,8.3-17.62,23.67-27.63,37.99-63.51,37.99-102.66v-16.87ZM645.62,378.98c-4.7,1.57-9.75-.56-11.98-4.81,3-1.09,6.09-2.03,9.25-2.81,1.01-.26,1.63-1.28,1.37-2.29-.25-1.01-1.27-1.63-2.28-1.38-3.22.8-6.37,1.76-9.44,2.87-.47-4.54,2.24-8.97,6.74-10.48,1.05-.35,2.11-.52,3.16-.52,4.17,0,8.06,2.63,9.46,6.8,1.75,5.21-1.07,10.87-6.28,12.62ZM645.64,353.32c9.74-3.27,21.7,4.2,25.26,6.66-1.36,4.11-6.39,17.28-16.13,20.55-1.72.58-3.51.81-5.32.81,5.45-3.23,8.11-9.94,6.01-16.18h0c-2.09-6.24-8.26-9.99-14.55-9.28,1.43-1.09,3.01-1.98,4.73-2.56ZM451.46,606.87c0-10.75,7.7-19.72,17.87-21.72,1.16,13.22,12.28,23.63,25.8,23.63.17,0,.34,0,.52-.01-.97,11.32-10.48,20.24-22.05,20.24-12.21,0-22.14-9.93-22.14-22.14ZM543.18,605.01c-11.56,0-21.07-8.91-22.05-20.22h44.1c-.98,11.31-10.49,20.22-22.05,20.22ZM543.18,608.78c.17,0,.33,0,.5-.01-.97,11.32-10.48,20.24-22.05,20.24s-21.29-9.12-22.08-20.61c8.92-1.54,16.29-7.66,19.6-15.84,3.84,9.5,13.16,16.22,24.02,16.22ZM475.55,632.7c10.01-.75,18.45-7.21,22.06-16.12,3.61,8.91,12.05,15.37,22.05,16.12-.92,11.36-10.46,20.33-22.06,20.33s-21.13-8.97-22.06-20.33ZM512.71,651.93s0,0-.01,0c3.96-2.85,7.08-6.78,8.94-11.36,1.13,2.8,2.74,5.4,4.79,7.67,0,0,0,0,0,0-4.32,1.63-8.9,2.86-13.71,3.69ZM547.3,635.48c-5,4.63-10.75,8.39-17.13,11.23-3.81-3.73-6.14-8.72-6.57-14.02,10.01-.76,18.45-7.22,22.06-16.14,1.77,4.4,4.74,8.27,8.66,11.16,0,0,0,0,0,.01-2.09,2.79-4.43,5.38-7,7.76ZM556.48,624.64c-5.21-3.87-8.44-9.8-8.89-16.24,9.08-1.57,16.55-7.87,19.78-16.27,0,0,0,0,0,.01-1.19,12.42-4.88,23.39-10.89,32.5ZM574.89,486.76c0,4.19-1.15,8.22-3.31,11.7v-23.4c2.16,3.49,3.31,7.51,3.31,11.7ZM564.49,486.76c0-4.19,1.15-8.22,3.31-11.7v23.4c-2.16-3.49-3.31-7.51-3.31-11.7ZM473.74,584.88l7.82-.09h35.63c-.98,11.31-10.49,20.22-22.05,20.22s-21.03-8.87-22.04-20.14c.22,0,.43.02.65.02ZM611.6,680.72c3.24-3,7.21-4.94,11.48-5.63-5.55,6.04-11.56,11.62-17.99,16.7,1.01-4.22,3.25-8.05,6.5-11.07ZM618.67,688.33c-2.82,2.61-6.2,4.42-9.83,5.3,5.63-4.56,10.95-9.5,15.89-14.78-1.15,3.59-3.21,6.85-6.06,9.48ZM665.77,521.66c6.27,7.48,6.85,18.12,1.76,26.19v-12c0-1.04-.84-1.88-1.88-1.88s-1.88.84-1.88,1.88v11.58c-4.82-8.01-4.15-18.43,2.01-25.77ZM727.81,389.8c-.46-.7-11.54-17.08-25.72-17.08-12.56,0-22.68,12.84-25.15,16.26-14.55.86-28.17,5.17-40.08,12.13,0,0,0,0,0,0-.85-.64-1.89-1.02-3.03-1.02-2.79,0-5.05,2.26-5.05,5.05,0,.41.05.8.14,1.18,0,0,0,0,0,0-8.57,6.29-15.99,14.04-21.89,22.89-12.75,5.66-18.78,20.44-13.64,33.39-1.03,5.44-1.56,11.05-1.56,16.78v74.71c-1.91.72-3.27,2.56-3.27,4.72s1.36,4,3.27,4.72v31.37c0,5.88-.62,11.62-1.8,17.15-12.44,5.26-18.82,19.24-14.62,32.07-15,19.97-38.88,32.91-65.71,32.91h-12.07c-1.04,0-1.89.84-1.89,1.88s.85,1.89,1.89,1.89h12.07c28.19,0,53.24-13.65,68.91-34.67,6.33-2.47,11.35-7.24,14.17-13.44,2.81-6.18,3.11-13.08.85-19.47t0,0c1.29-5.9,1.97-12.03,1.97-18.31v-31.45c1.8-.77,3.07-2.56,3.07-4.65s-1.27-3.88-3.07-4.65v-74.79c0-5.35.48-10.59,1.42-15.67,12.27-5.74,18.1-20.03,13.34-32.71,5.62-8.34,12.65-15.66,20.75-21.6,0,0,0,0,0,0,.79.5,1.72.8,2.72.8,2.79,0,5.05-2.26,5.05-5.05,0-.28-.03-.54-.07-.81,0,0,0,0,0,0,11.35-6.62,24.32-10.74,38.17-11.58h0c2.54,3.5,12.62,16.21,25.11,16.21,14.19,0,25.26-16.38,25.72-17.08l.7-1.05-.7-1.05ZM602.62,436.53c-3.02,5.59-5.46,11.54-7.26,17.75-.37-6.69,2.31-13.25,7.26-17.75ZM588.83,616.89c-2.31,8.34-5.92,16.15-10.59,23.2-1.68-9.16,2.57-18.48,10.59-23.2ZM583.42,638.94c3.25-5.41,5.91-11.21,7.9-17.31.09,6.64-2.83,13.02-7.9,17.31ZM598.04,458.84c2.05-8.42,5.33-16.35,9.64-23.61,2.05,9.07-1.81,18.56-9.64,23.61ZM684.1,392.57h9.52c1.04,0,1.88-.84,1.88-1.88s-.84-1.88-1.88-1.88h-9.47c.94-4.52,4.96-7.93,9.76-7.93,5.5,0,9.97,4.47,9.97,9.97s-4.47,9.97-9.97,9.97c-4.9,0-8.98-3.56-9.81-8.23ZM702.09,405.19c-1.82,0-3.59-.35-5.3-.92,6.19-1.33,10.85-6.84,10.85-13.43s-4.66-12.1-10.85-13.43c1.71-.58,3.48-.92,5.3-.92,10.27,0,19.24,10.88,21.83,14.35-2.59,3.47-11.56,14.35-21.83,14.35ZM583.52,669.98s0,0,0,0c-6.5-.86-13,.73-18.4,4.53-5.41,3.81-9.1,9.41-10.47,15.85-14.19,6.87-30.1,10.72-46.9,10.72h-10.14c-1.04,0-1.89.84-1.89,1.88s.85,1.88,1.89,1.88h10.14c17.48,0,34.04-4.03,48.79-11.21,0,0,0,0,0,0,1.32.2,2.64.31,3.95.31,5.32,0,10.51-1.63,14.95-4.76,5.54-3.91,9.28-9.69,10.56-16.33,0,0,0,0,0,0,20.72-20.31,33.59-48.6,33.59-79.84v-64.37c9.43-10,9.43-25.7,0-35.7v-6.15c0-19.46,8.08-37.78,21.83-50.86,0,0,.01,0,.02-.02.89.09,1.77.15,2.65.15,12.7,0,23.86-9.33,25.76-22.27l.27-1.87-1.87-.27c-14.08-2.07-27.23,7.59-29.51,21.6,0,0,0,0,0,0-14.45,13.79-22.93,33.06-22.93,53.53v6.16c-4.57,4.85-7.07,11.15-7.07,17.84s2.51,12.98,7.07,17.83v64.39c0,30.11-12.37,57.38-32.31,76.98ZM567.3,677.6c3.7-2.61,8.01-3.99,12.44-4.06-6.22,5.57-13.09,10.43-20.48,14.46,1.55-4.17,4.31-7.78,8.03-10.4ZM563.48,689.95s.02-.01.03-.02c5.94-3.42,11.53-7.38,16.72-11.8,0,0,0,0,0,0-3.33,6.4-9.61,10.84-16.75,11.82ZM665.76,415.18c-2.27,9.53-10.54,16.38-20.11,17.05,0,0,0,0,0,0,3.15-2.56,6.54-4.85,10.16-6.86.91-.51,1.24-1.65.73-2.57-.51-.91-1.65-1.24-2.57-.73-3.55,1.97-6.89,4.2-10.02,6.67,3.61-8.53,12.3-14.13,21.8-13.56ZM619.61,522.47v-23.39c4.4,7.14,4.4,16.25,0,23.39ZM612.54,510.78c0-4.19,1.14-8.2,3.3-11.68v23.34c-2.16-3.47-3.3-7.48-3.3-11.66ZM698.87,486.76c0-6.96-2.71-13.5-7.63-18.42l-1.33-1.33-1.33,1.33c-9.93,9.93-10.15,25.95-.66,36.15v49.66c-1.85.75-3.16,2.56-3.16,4.68s1.31,3.93,3.16,4.68v18.87c0,9.84-.85,19.55-2.51,29.05-5.67,3.37-9.79,8.67-11.66,15.04-1.89,6.44-1.25,13.23,1.79,19.18-8.27,20.2-20.57,38.74-36.46,54.64-.73.74-.73,1.93,0,2.67.37.37.86.55,1.34.55s.96-.19,1.33-.55c16.38-16.38,29.02-35.52,37.49-56.35,5.7-3.37,9.85-8.7,11.72-15.09,1.9-6.49,1.24-13.3-1.86-19.29,1.72-9.76,2.59-19.74,2.59-29.85v-18.87c1.86-.75,3.18-2.56,3.18-4.69s-1.32-3.94-3.18-4.69v-49.42c4.64-4.87,7.19-11.21,7.19-17.96ZM689.9,472.45c3.36,4,5.19,9.01,5.19,14.3,0,4.25-1.2,8.32-3.42,11.83v-11.83c0-1.04-.85-1.89-1.89-1.89s-1.88.85-1.88,1.89v11.48c-4.82-8.02-4.16-18.43,2-25.78ZM684.37,616.77c-1.69,8.12-3.98,16.08-6.85,23.81-2.75-8.57-.02-18.03,6.85-23.81ZM687.32,630.46c-1.05,3.59-2.96,6.81-5.52,9.39,2.4-6.7,4.36-13.56,5.89-20.55.83,3.65.72,7.47-.37,11.16ZM506.93,482.46h-3.77c0-3.28-2.67-5.94-5.94-5.94s-5.94,2.67-5.94,5.94h-3.77c0-5.36,4.36-9.72,9.72-9.72s9.72,4.36,9.72,9.72ZM506.43,495.45c1.12,0,2.03.91,2.03,2.03s-.91,2.03-2.03,2.03-2.03-.91-2.03-2.03.91-2.03,2.03-2.03ZM660.65,499.51c0-2.79,2.26-5.05,5.05-5.05s5.05,2.26,5.05,5.05-2.26,5.05-5.05,5.05-5.05-2.26-5.05-5.05ZM660.65,476.52c0-2.79,2.26-5.05,5.05-5.05s5.05,2.26,5.05,5.05-2.26,5.05-5.05,5.05-5.05-2.26-5.05-5.05ZM622.78,714.97c0,2.79-2.26,5.05-5.05,5.05s-5.05-2.26-5.05-5.05,2.26-5.05,5.05-5.05,5.05,2.26,5.05,5.05ZM694.95,419.57c-12.62,2.07-20.58,16.84-22.29,20.31-19.12,7-32.8,25.39-32.8,46.9v67.37c-1.84.76-3.13,2.56-3.13,4.67s1.29,3.91,3.13,4.67v19.46c0,9.7-1.16,19.22-3.45,28.46-5.95,3.11-10.41,8.3-12.58,14.69-2.24,6.59-1.78,13.66,1.3,19.9l.83,1.69,1.69-.83c6.24-3.08,10.92-8.4,13.16-14.99,2.13-6.27,1.81-12.97-.87-18.99,2.46-9.72,3.7-19.73,3.7-29.94v-19.43c1.88-.74,3.21-2.56,3.21-4.7s-1.33-3.96-3.21-4.7v-67.34c0-19.75,12.47-36.63,29.95-43.21,3.04,2.98,13.17,12.02,24.15,12.02,1.02,0,2.06-.08,3.09-.25,14-2.29,22.28-20.25,22.62-21.01l.52-1.14-.86-.92c-.57-.61-14.15-14.98-28.14-12.69ZM637.23,630.67c-1.7,5.01-5.05,9.16-9.52,11.87-1.89-4.87-2.02-10.2-.31-15.21,1.44-4.23,4.06-7.84,7.53-10.49-1.23,4.1-2.67,8.13-4.35,12.1-.41.96.04,2.07,1,2.47.24.1.49.15.73.15.73,0,1.43-.43,1.74-1.15,1.52-3.58,2.85-7.22,4-10.9.68,3.69.42,7.51-.82,11.17ZM680.26,441.62c3.08-.65,6.27-1,9.53-1,1.04,0,1.89-.84,1.89-1.89s-.84-1.89-1.89-1.89c-3.39,0-6.7.34-9.9.99.16-1.74.77-3.42,1.82-4.88,1.55-2.16,3.86-3.59,6.48-4.02.55-.09,1.09-.13,1.63-.13,2.07,0,4.08.64,5.79,1.88,2.16,1.55,3.59,3.85,4.02,6.48.43,2.63-.19,5.26-1.74,7.43-1.55,2.16-3.86,3.59-6.48,4.02-5,.82-9.75-2.26-11.16-7ZM700.2,451.62c-1.79.3-3.6.24-5.38-.05,2.44-.95,4.57-2.59,6.14-4.77,2.14-2.98,2.99-6.62,2.4-10.24-.59-3.62-2.56-6.8-5.54-8.94-2.18-1.57-4.71-2.43-7.33-2.56,1.59-.85,3.28-1.47,5.07-1.77,10.14-1.67,20.74,7.63,23.86,10.63-2,3.84-9.09,16.03-19.22,17.69Z"/>
</svg>