<svg xmlns="http://www.w3.org/2000/svg" width="1130" height="70" viewBox="0 0 1130 70"><rect width="100%" height="100%" fill="#DDDDDD"/><path fill="#999999" d="M498.3 44.415h4.55v3.24h-14v-3.24h5.12v-14.75q0-.88.06-1.8l-3.64 3.04q-.32.25-.62.31-.31.06-.58.01-.27-.06-.48-.19-.21-.13-.32-.29l-1.36-1.87 7.71-6.56h3.56v22.1Zm20.3 0h4.55v3.24h-14v-3.24h5.12v-14.75q0-.88.06-1.8l-3.64 3.04q-.32.25-.62.31-.31.06-.58.01-.27-.06-.48-.19-.21-.13-.32-.29l-1.36-1.87 7.71-6.56h3.56v22.1Zm10.9-14.61-2.28-.4q.27-1.82 1.02-3.2.75-1.37 1.88-2.29 1.13-.92 2.59-1.38 1.46-.47 3.14-.47 1.75 0 3.16.5 1.41.5 2.41 1.39.99.88 1.53 2.07.53 1.19.53 2.57 0 1.21-.27 2.13-.27.92-.78 1.6t-1.26 1.15q-.75.48-1.7.79 2.28.72 3.4 2.19t1.12 3.69q0 1.89-.7 3.34-.7 1.46-1.89 2.45-1.19.98-2.76 1.49-1.56.51-3.31.51-1.91 0-3.33-.44-1.42-.44-2.47-1.29-1.05-.86-1.78-2.1-.74-1.25-1.26-2.87l1.91-.79q.75-.32 1.41-.17.65.15.95.71.31.61.69 1.21.38.59.9 1.06.53.46 1.24.75.7.29 1.68.29 1.11 0 1.93-.36.82-.36 1.37-.94.55-.57.83-1.28.27-.71.27-1.43 0-.91-.2-1.65-.19-.75-.8-1.27-.61-.53-1.76-.82-1.15-.3-3.07-.3v-3.08q1.59-.02 2.64-.3 1.05-.28 1.67-.78.62-.5.87-1.2.24-.7.24-1.54 0-1.78-.99-2.71-1-.93-2.66-.93-.77 0-1.42.22-.65.22-1.16.62-.52.39-.87.91-.35.53-.53 1.16-.29.8-.77 1.07-.49.26-1.36.12Zm35.56 5.2q0 3.3-.71 5.75-.71 2.44-1.96 4.03-1.25 1.59-2.96 2.37-1.7.78-3.68.78-1.98 0-3.67-.78t-2.93-2.37q-1.24-1.59-1.94-4.03-.7-2.45-.7-5.75 0-3.33.7-5.76.7-2.43 1.94-4.03 1.24-1.59 2.93-2.37 1.69-.78 3.67-.78t3.68.78q1.71.78 2.96 2.37 1.25 1.6 1.96 4.03t.71 5.76Zm-4.46 0q0-2.75-.41-4.55-.4-1.81-1.07-2.87-.68-1.07-1.55-1.5-.88-.43-1.82-.43-.93 0-1.79.43-.87.43-1.54 1.5-.66 1.06-1.05 2.87-.4 1.8-.4 4.55 0 2.74.4 4.55.39 1.8 1.05 2.87.67 1.06 1.54 1.49.86.43 1.79.43.94 0 1.82-.43.87-.43 1.55-1.49.67-1.07 1.07-2.87.41-1.81.41-4.55Zm32.25 6.86-2.29 2.25-5.94-5.93-5.98 5.97-2.29-2.26 5.98-6-5.7-5.71 2.27-2.27 5.71 5.7 5.67-5.67 2.31 2.28-5.69 5.69 5.95 5.95Zm12.02-19.52h17.48v1.88q0 .84-.17 1.35-.18.52-.35.87l-9.59 19.74q-.3.61-.84 1.04-.54.43-1.45.43h-3.14l9.79-19.34q.33-.59.65-1.09.33-.5.73-.96h-12.11q-.4 0-.7-.29-.3-.3-.3-.7v-2.93Zm38.1 12.66q0 3.3-.71 5.75-.71 2.44-1.96 4.03-1.25 1.59-2.96 2.37-1.7.78-3.68.78-1.98 0-3.67-.78-1.68-.78-2.93-2.37-1.24-1.59-1.94-4.03-.7-2.45-.7-5.75 0-3.33.7-5.76.7-2.43 1.94-4.03 1.25-1.59 2.93-2.37 1.69-.78 3.67-.78t3.68.78q1.71.78 2.96 2.37 1.25 1.6 1.96 4.03t.71 5.76Zm-4.46 0q0-2.75-.41-4.55-.4-1.81-1.07-2.87-.68-1.07-1.55-1.5-.88-.43-1.82-.43-.93 0-1.79.43-.87.43-1.53 1.5-.67 1.06-1.06 2.87-.4 1.8-.4 4.55 0 2.74.4 4.55.39 1.8 1.06 2.87.66 1.06 1.53 1.49.86.43 1.79.43.94 0 1.82-.43.87-.43 1.55-1.49.67-1.07 1.07-2.87.41-1.81.41-4.55Z"/></svg>