<?xml version="1.0" encoding="UTF-8"?>
<svg id="Layer_1" data-name="Layer 1" xmlns="http://www.w3.org/2000/svg" viewBox="0 0 1080 1080">
  <defs>
    <style>
      .cls-1 {
        stroke-width: 0px;
      }
    </style>
  </defs>
  <path class="cls-1" d="M384.22,683.97c-8.12,0-14.72,6.6-14.72,14.72v64.91c0,.96.78,1.74,1.74,1.74s1.74-.78,1.74-1.74v-29.46c2.7,3.2,6.74,5.24,11.24,5.24,8.12,0,14.72-6.6,14.72-14.72v-25.96c0-8.12-6.6-14.72-14.72-14.72ZM395.46,724.65c0,6.2-5.04,11.24-11.24,11.24h0c-6.2,0-11.24-5.04-11.24-11.24v-25.96c0-6.2,5.04-11.24,11.24-11.24s11.24,5.04,11.24,11.24v25.96ZM528.75,698.69v25.96c0,6.2,5.04,11.24,11.24,11.24s11.24-5.04,11.24-11.24c0-.96.78-1.74,1.74-1.74s1.74.78,1.74,1.74c0,8.12-6.6,14.72-14.72,14.72s-14.72-6.6-14.72-14.72v-25.96c0-8.12,6.6-14.72,14.72-14.72s14.72,6.6,14.72,14.72c0,.96-.78,1.74-1.74,1.74s-1.74-.78-1.74-1.74c0-6.2-5.04-11.24-11.24-11.24s-11.24,5.04-11.24,11.24ZM591.92,683.97c-8.12,0-14.72,6.6-14.72,14.72v25.96c0,8.12,6.6,14.72,14.72,14.72s14.72-6.6,14.72-14.72v-25.96c0-8.12-6.6-14.72-14.72-14.72ZM603.16,724.65c0,6.2-5.04,11.24-11.24,11.24s-11.24-5.04-11.24-11.24v-25.96c0-6.2,5.04-11.24,11.24-11.24s11.24,5.04,11.24,11.24v25.96ZM502.79,698.69v25.96c0,8.12-6.6,14.72-14.72,14.72s-14.72-6.6-14.72-14.72v-4.15c0-5.82,4.74-10.56,10.56-10.56h4.15c.96,0,1.74.78,1.74,1.74s-.78,1.74-1.74,1.74h-4.15c-3.91,0-7.09,3.18-7.09,7.09v4.15c0,6.2,5.04,11.24,11.24,11.24s11.24-5.04,11.24-11.24v-25.96c0-6.2-5.04-11.24-11.24-11.24s-11.24,5.04-11.24,11.24c0,.96-.78,1.74-1.74,1.74s-1.74-.78-1.74-1.74c0-8.12,6.6-14.72,14.72-14.72s14.72,6.6,14.72,14.72ZM447.39,698.69c0-6.2-5.04-11.24-11.24-11.24s-11.24,5.04-11.24,11.24v25.96c0,6.2,5.04,11.24,11.24,11.24s11.24-5.04,11.24-11.24c0-.96.78-1.74,1.74-1.74s1.74.78,1.74,1.74c0,8.12-6.6,14.72-14.72,14.72s-14.72-6.6-14.72-14.72v-25.96c0-8.12,6.6-14.72,14.72-14.72s14.72,6.6,14.72,14.72-6.6,14.72-14.72,14.72v-3.47c6.2,0,11.24-5.04,11.24-11.24ZM632.6,698.69v25.96c0,6.2,5.04,11.24,11.24,11.24s11.24-5.04,11.24-11.24c0-.96.78-1.74,1.74-1.74s1.74.78,1.74,1.74c0,8.12-6.6,14.72-14.72,14.72s-14.72-6.6-14.72-14.72v-25.96c0-8.12,6.6-14.72,14.72-14.72s14.72,6.6,14.72,14.72c0,.96-.78,1.74-1.74,1.74s-1.74-.78-1.74-1.74c0-6.2-5.04-11.24-11.24-11.24s-11.24,5.04-11.24,11.24ZM593.67,711.67c0,.97-.78,1.75-1.75,1.75s-1.75-.78-1.75-1.75.78-1.75,1.75-1.75,1.75.78,1.75,1.75ZM385.97,711.67c0,.97-.78,1.75-1.75,1.75s-1.75-.78-1.75-1.75.78-1.75,1.75-1.75,1.75.78,1.75,1.75ZM707,687.46c0-.97.78-1.75,1.75-1.75s1.75.78,1.75,1.75-.78,1.75-1.75,1.75-1.75-.78-1.75-1.75ZM707.01,724.65c0-6.2-5.04-11.24-11.24-11.24s-11.24,5.04-11.24,11.24v12.98c0,.96-.78,1.74-1.74,1.74s-1.74-.78-1.74-1.74v-77.89c0-.96.78-1.74,1.74-1.74s1.74.78,1.74,1.74v55.42c2.7-3.2,6.74-5.24,11.24-5.24,6.2,0,11.24-5.04,11.24-11.24,0-.96.78-1.74,1.74-1.74s1.74.78,1.74,1.74c0,5.61-3.16,10.5-7.79,12.98,4.63,2.48,7.79,7.37,7.79,12.98l-.02,13.16c-.09.88-.82,1.56-1.72,1.56s-1.63-.69-1.72-1.56l-.02-13.16ZM506.22,636.73c0,4.94-.02,9.87-.03,14.81,0,2.78,1.62,4.58,3.7,4.63h.93v1.85h-.93c-3.01-.05-5.55-2.41-5.55-6.48v-14.81h-2.78v-1.85h2.78v-8.28h1.94l-.05.92v7.36s3.66,0,3.66,0h.93v1.85h-4.6ZM527.56,658.01h-.09v-31.47h1.85v10.84c1.56-1.5,3.94-2.48,6.48-2.51,4.44,0,8.38,2.96,8.33,6.48v15.73l.05.97h-1.81l-.05-.93-.05-15.78c0-2.64-2.64-4.58-6.48-4.63-3.79,0-6.43,2.08-6.48,4.63v15.73l.05.97h-1.8v-.05ZM575.6,651.58v-.93h1.85v.93c0,3.52-3.84,6.48-8.33,6.43-4.44,0-8.28-2.87-8.28-6.43l-.02-4.21h-.03v-1.85h.02l-.02-4.16c0-3.56,3.93-6.43,8.33-6.48,4.44,0,8.38,2.96,8.33,6.48v6.02h-14.79l-.02,4.16c0,2.64,2.73,4.67,6.48,4.63,3.79,0,6.48-1.99,6.48-4.58ZM562.67,645.52l12.97.04-.05-4.21c0-2.64-2.64-4.58-6.48-4.63-3.79,0-6.43,2.04-6.43,4.67l-.02,4.12ZM423.82,780.44v.92h-1.85v-.92c0-2.59-2.64-4.54-6.48-4.58-3.79,0-6.43,2.04-6.43,4.67l-.05,10.13c0,2.64,2.73,4.67,6.48,4.63,3.79,0,6.48-1.99,6.48-4.63v-.92h1.85v.92c0,3.56-3.84,6.52-8.33,6.48-4.44,0-8.28-2.87-8.28-6.43l-.05-10.23c0-3.56,3.93-6.43,8.33-6.48,4.44,0,8.33,2.92,8.33,6.43ZM440.48,780.48c0-3.52,3.98-6.43,8.33-6.48,4.4,0,8.38,3.01,8.38,6.52l-.05,10.13c0,3.52-3.89,6.52-8.33,6.48-4.4,0-8.28-2.92-8.33-6.48v-10.18ZM442.33,780.48v10.18c0,2.59,2.78,4.67,6.48,4.63,3.79,0,6.52-1.99,6.52-4.58l-.05-10.23c0-2.59-2.68-4.58-6.48-4.63-3.75,0-6.48,2.04-6.48,4.63ZM474.72,766.6v-.92h1.85v25.96c-.05,2.41,1.06,3.7,2.78,3.66h.93v1.85h-.93c-2.54.05-4.67-2.45-4.63-5.51v-25.03ZM496.01,766.6v-.92h1.85v25.96c-.05,2.41,1.06,3.7,2.78,3.66h.93v1.85h-.93c-2.54.05-4.67-2.45-4.63-5.51v-25.03ZM531.17,790.71v-.93h1.85v.93c0,3.52-3.84,6.48-8.33,6.43-4.44,0-8.28-2.87-8.28-6.43l-.02-4.21h-.03v-1.85h.02l-.02-4.16c0-3.56,3.93-6.43,8.33-6.48,4.44,0,8.38,2.96,8.33,6.48v6.02h-14.79l-.02,4.16c0,2.64,2.73,4.67,6.48,4.63,3.79,0,6.48-1.99,6.48-4.58ZM518.25,784.65l12.98.04-.05-4.21c0-2.64-2.64-4.58-6.48-4.63-3.79,0-6.43,2.04-6.43,4.67l-.02,4.12ZM566.34,780.44v.92h-1.85v-.92c0-2.59-2.64-4.54-6.48-4.58-3.79,0-6.43,2.04-6.43,4.67l-.05,10.13c0,2.64,2.73,4.67,6.48,4.63,3.79,0,6.48-1.99,6.48-4.63v-.92h1.85v.92c0,3.56-3.84,6.52-8.33,6.48-4.44,0-8.28-2.87-8.28-6.43l-.05-10.23c0-3.56,3.93-6.43,8.33-6.48,4.44,0,8.33,2.92,8.33,6.43ZM585.81,775.86c0,4.94-.02,9.87-.03,14.81,0,2.78,1.62,4.58,3.7,4.63h.93v1.85h-.93c-3.01-.05-5.55-2.41-5.55-6.48v-14.81h-2.78v-1.85h2.78v-8.28h1.94l-.05.92v7.36s3.66,0,3.66,0h.93v1.85h-4.6ZM608.04,768.73h-.93v-1.85h1.9v1.85h-.97ZM607.11,774.93v-.92h1.85v23.14h-1.85v-22.21ZM625.62,775.25l-.42-1.25h1.94l.23.6,6.57,18.79,6.48-18.79.23-.6h1.94l-.42,1.25-7.36,21.29-.23.6h-1.3l-.23-.6-7.45-21.29ZM671.85,790.71v-.93h1.85v.93c0,3.52-3.84,6.48-8.33,6.43-4.44,0-8.28-2.87-8.28-6.43l-.02-4.21h-.03v-1.85h.02l-.02-4.16c0-3.56,3.93-6.43,8.33-6.48,4.44,0,8.38,2.96,8.33,6.48v6.02h-14.79l-.02,4.16c0,2.64,2.73,4.67,6.48,4.63,3.79,0,6.48-1.99,6.48-4.58ZM658.92,784.65l12.97.04-.05-4.21c0-2.64-2.64-4.58-6.48-4.63-3.79,0-6.43,2.04-6.43,4.67l-.02,4.12Z"/>
  <path class="cls-1" d="M639.77,441.94c7.55-7.9,7.44-20.46-.33-28.22l-1.04-1.04-1.03,1.04c-7.7,7.7-7.87,20.11-.52,28.02v13.29c0,29.62-10.83,56.76-28.72,77.66-5.1,0-9.93,1.9-13.69,5.39-3.77,3.49-6.03,8.2-6.41,13.29-19.82,14.6-44.3,23.24-70.75,23.24-65.93,0-119.57-53.64-119.57-119.57,0-27.47,8.92-50.62,25.8-66.95,15.02-14.53,35.12-22.54,56.62-22.54,8.58,0,19.53.56,28.15,4.93,5.66,2.86,11.75,9.99,11.75,16.51v17.21h-17.2c-9.49,0-17.21-7.72-17.21-17.21,0-1.5.19-2.98.57-4.41.21-.78-.26-1.58-1.04-1.79-.78-.21-1.58.26-1.79,1.04-.45,1.68-.67,3.41-.67,5.16,0,.68.04,1.36.1,2.03,0,0,0,0,0,0-18.96,3.35-32.67,20.17-32.01,39.51.34,10.07,4.53,19.48,11.78,26.5,5.1,4.94,11.34,8.31,18.11,9.89-6.69,3.26-11.32,10.13-11.32,18.07,0,10.6,8.25,19.3,18.67,20.03.71,10.22,9.09,18.35,19.42,18.66,0,0,.01,0,.02.01.19.08.39.13.6.13,16.25,0,30.25-5.02,40.5-14.5,11.01-10.2,16.83-25.01,16.83-42.84v-60.77c3.55-3.76,5.49-8.65,5.49-13.83s-1.94-10.07-5.49-13.83v-4.8c0-14.97,4.52-29.06,12.41-40.8,0,0,0,0,0,0,.26.06.54.09.82.09,2.16,0,3.92-1.75,3.92-3.92,0-.68-.17-1.32-.48-1.88,0,0,0,0,0,0,7.03-8.52,16-15.45,26.37-20.09,0,0,0,0,0,0,2.33,1.65,9.76,6.45,17.37,6.45,1.68,0,3.37-.23,5.01-.78,10.43-3.5,14.52-18.26,14.69-18.89l.25-.94-.77-.6c-.51-.4-12.69-9.7-23.11-6.21-9.33,3.13-13.59,15.27-14.5,18.25,0,0,0,0,0,0-10.84,4.83-20.22,12.07-27.55,20.97,0,0,0,0,0,0-.38-.12-.78-.19-1.19-.19-2.16,0-3.92,1.75-3.92,3.92,0,.82.25,1.58.68,2.2,0,0,0,0,0,0-8.21,12.2-12.91,26.85-12.91,42.43v4.8c-3.55,3.76-5.49,8.64-5.49,13.83s1.94,10.07,5.49,13.83v59.24h-66.88l-6.06.07s-.06,0-.09,0v-.11c-.55,0-1.1.03-1.65.07-18.62-.87-33.44-15.73-34.08-34.55-.61-17.88,12.06-33.43,29.59-36.53,2.2,8.73,10.11,15.22,19.53,15.22h20.12v-20.13c0-.65-.05-1.3-.14-1.95,0,0,0,0,0,0v-13.81c0-14.25-11.01-25.97-24.97-27.12-.17-1.01-1.03-1.78-2.09-1.78-1.17,0-2.12.95-2.12,2.12s.95,2.12,2.12,2.12c.77,0,1.44-.41,1.81-1.03,13.28,1.01,23.79,12.14,23.79,25.68v8.95c-.58-1.28-1.3-2.53-2.12-3.72,0,0,0,0,0,0v-4.28c0-12.3-9.44-22.43-21.46-23.53-.27-.87-1.07-1.5-2.02-1.5-1.17,0-2.12.95-2.12,2.12s.95,2.12,2.12,2.12c.88,0,1.63-.53,1.95-1.29,11.24,1.07,20.06,10.56,20.06,22.07v2.36s0,0,0,0c-.82-.99-1.71-1.92-2.64-2.77-.49-9.56-7.93-17.31-17.35-18.29-.27-.87-1.07-1.5-2.02-1.5-1.17,0-2.12.95-2.12,2.12s.95,2.12,2.12,2.12c.87,0,1.63-.53,1.95-1.29,8.2.89,14.75,7.33,15.82,15.47-1.28-1.01-2.61-1.87-3.93-2.54-9.16-4.64-20.56-5.24-29.47-5.24-22.25,0-43.08,8.3-58.65,23.36-17.47,16.9-26.69,40.78-26.69,69.06,0,67.54,54.95,122.5,122.49,122.5,27.14,0,52.26-8.88,72.58-23.88.1,0,.21,0,.31,0,5.1,0,9.94-1.9,13.71-5.39,3.86-3.58,6.13-8.42,6.43-13.66,18.35-21.42,29.45-49.23,29.45-79.58v-13.08ZM622.81,286.41c7.55-2.53,16.82,3.25,19.58,5.16-1.05,3.19-4.95,13.4-12.51,15.93-1.34.45-2.72.63-4.12.63,4.22-2.5,6.28-7.7,4.66-12.54h0c-1.62-4.84-6.4-7.74-11.28-7.19,1.11-.85,2.33-1.54,3.66-1.98ZM617.88,291.65c.81-.27,1.64-.4,2.45-.4,3.23,0,6.25,2.04,7.33,5.27,1.35,4.04-.83,8.43-4.87,9.78-3.64,1.22-7.55-.44-9.29-3.73,2.33-.84,4.72-1.57,7.17-2.18.78-.2,1.26-.99,1.06-1.77-.19-.78-.98-1.26-1.77-1.07-2.49.62-4.93,1.36-7.31,2.22-.36-3.52,1.73-6.95,5.22-8.12ZM565.4,380.78c1.68,2.7,2.57,5.82,2.57,9.07s-.89,6.37-2.57,9.07v-18.14ZM559.91,389.85c0-3.25.89-6.37,2.57-9.07v18.14c-1.68-2.7-2.57-5.82-2.57-9.07ZM508.06,518.74c-8.99,0-16.38-6.95-17.1-15.76,7.76-.58,14.3-5.59,17.1-12.5,2.8,6.91,9.34,11.91,17.09,12.5-.71,8.81-8.11,15.76-17.1,15.76ZM530.39,515.03c-3.35,1.27-6.9,2.22-10.63,2.86,0,0,0,0-.01,0,3.07-2.21,5.49-5.25,6.93-8.8.88,2.17,2.13,4.19,3.71,5.94,0,0,0,0,0,0ZM552.01,499.13c-1.62,2.16-3.44,4.17-5.43,6.01-3.88,3.59-8.33,6.5-13.28,8.7-2.95-2.89-4.76-6.76-5.09-10.86,7.76-.59,14.3-5.6,17.1-12.51,1.37,3.41,3.68,6.41,6.71,8.65,0,0,0,0,0,0ZM562.14,471.54c-.92,9.62-3.78,18.13-8.44,25.19-4.04-3-6.55-7.59-6.89-12.59,7.04-1.21,12.83-6.1,15.33-12.61,0,0,0,0,0,.01ZM560.48,465.84c-.76,8.77-8.13,15.67-17.09,15.67s-16.34-6.91-17.09-15.67h34.18ZM543.39,484.44c.13,0,.26,0,.39,0-.75,8.78-8.13,15.69-17.09,15.69s-16.51-7.07-17.11-15.98c6.92-1.19,12.63-5.93,15.2-12.28,2.98,7.36,10.2,12.57,18.62,12.57ZM489.56,465.92l6.06-.07h27.62c-.76,8.77-8.13,15.67-17.09,15.67s-16.3-6.87-17.09-15.61c.17,0,.33.01.5.01ZM506.14,484.44c.13,0,.27,0,.4-.01-.75,8.78-8.13,15.69-17.09,15.69-9.46,0-17.16-7.7-17.16-17.16,0-8.33,5.97-15.29,13.85-16.84.9,10.25,9.52,18.32,20,18.32ZM596.43,540.21c2.51-2.33,5.59-3.83,8.9-4.37-4.3,4.68-8.96,9.01-13.94,12.95.78-3.27,2.52-6.24,5.04-8.58ZM601.9,546.11c-2.19,2.03-4.81,3.43-7.62,4.11,4.37-3.53,8.49-7.36,12.32-11.46-.89,2.79-2.49,5.31-4.7,7.35ZM638.32,426.45c-.81,0-1.46.65-1.46,1.46v8.98c-3.73-6.21-3.21-14.29,1.56-19.98,4.86,5.8,5.31,14.05,1.36,20.31v-9.31c0-.81-.65-1.46-1.46-1.46ZM664.07,389.85c0-5.4-2.1-10.47-5.92-14.28l-1.03-1.03-1.03,1.03c-7.7,7.7-7.87,20.12-.51,28.03v38.49c-1.44.58-2.45,1.99-2.45,3.63s1.01,3.05,2.45,3.63v14.63c0,7.63-.66,15.16-1.94,22.52-4.4,2.61-7.59,6.72-9.04,11.66-1.47,4.99-.97,10.25,1.39,14.87-6.41,15.66-15.95,30.03-28.27,42.35-.57.57-.57,1.5,0,2.07.29.28.66.43,1.04.43s.75-.14,1.03-.43c12.7-12.7,22.49-27.53,29.06-43.68,4.42-2.61,7.64-6.74,9.09-11.69,1.47-5.03.96-10.31-1.44-14.95,1.33-7.56,2.01-15.3,2.01-23.14v-14.62c1.44-.58,2.46-1.99,2.46-3.63s-1.02-3.06-2.46-3.63v-38.31c3.59-3.77,5.57-8.69,5.57-13.92ZM647.52,509.1c-2.13-6.64-.01-13.97,5.31-18.46-1.31,6.3-3.09,12.47-5.31,18.46ZM655.12,501.25c-.81,2.79-2.29,5.28-4.28,7.28,1.86-5.19,3.38-10.51,4.57-15.93.65,2.83.55,5.79-.28,8.65ZM657.04,388.39c-.81,0-1.46.66-1.46,1.47v8.9c-3.73-6.22-3.23-14.29,1.55-19.98,2.61,3.1,4.03,6.99,4.03,11.09,0,3.3-.93,6.45-2.65,9.17v-9.17c0-.81-.66-1.47-1.47-1.47ZM574.66,531.88s0,0,0,0c-5.04-.67-10.08.56-14.26,3.51-4.19,2.95-7.05,7.29-8.12,12.28-11,5.32-23.34,8.31-36.36,8.31h-7.86c-.81,0-1.47.65-1.47,1.46s.66,1.46,1.47,1.46h7.86c13.55,0,26.38-3.12,37.82-8.69,0,0,0,0,0,0,1.02.16,2.05.24,3.06.24,4.13,0,8.15-1.27,11.59-3.69,4.3-3.03,7.19-7.51,8.19-12.66,0,0,0,0,0,0,16.06-15.75,26.03-37.67,26.03-61.89v-49.9c7.31-7.76,7.31-19.92,0-27.68v-4.76c0-15.08,6.26-29.29,16.92-39.43,0,0,0,0,.01-.01.69.07,1.37.12,2.05.12,9.85,0,18.5-7.23,19.97-17.26l.21-1.45-1.45-.21c-10.91-1.61-21.11,5.89-22.87,16.74,0,0,0,0,0,0-11.2,10.69-17.77,25.62-17.77,41.5v4.78c-3.54,3.76-5.48,8.64-5.48,13.83s1.94,10.06,5.48,13.82v49.91c0,23.34-9.59,44.48-25.05,59.67ZM555.86,545.85c1.2-3.23,3.34-6.03,6.23-8.06,2.87-2.02,6.21-3.09,9.65-3.15-4.82,4.32-10.15,8.08-15.87,11.21ZM559.12,547.37s.02,0,.02-.01c4.6-2.65,8.94-5.72,12.96-9.15,0,0,0,0,0,0-2.58,4.96-7.45,8.4-12.98,9.16ZM638.41,334.37c-1.76,7.39-8.17,12.69-15.59,13.21,0,0,0,0,0,0,2.44-1.98,5.07-3.76,7.88-5.32.71-.39.96-1.28.57-1.99-.39-.71-1.28-.96-1.99-.57-2.75,1.53-5.34,3.26-7.77,5.17,2.8-6.61,9.54-10.95,16.9-10.51ZM602.63,399.41c3.41,5.54,3.41,12.6,0,18.13v-18.13ZM597.15,408.48c0-3.24.89-6.36,2.56-9.05v18.09c-1.67-2.69-2.56-5.8-2.56-9.04ZM666.57,301.45c-9.74,0-17.58,9.95-19.5,12.61-11.28.66-21.84,4.01-31.07,9.4,0,0,0,0,0,0-.66-.49-1.47-.79-2.35-.79-2.16,0-3.92,1.75-3.92,3.92,0,.32.04.62.11.92,0,0,0,0,0,0-6.64,4.87-12.39,10.89-16.97,17.74-9.88,4.38-14.56,15.84-10.57,25.88-.8,4.22-1.21,8.56-1.21,13.01v57.91c-1.48.56-2.54,1.99-2.54,3.66s1.06,3.1,2.54,3.66v24.32c0,4.56-.48,9.01-1.4,13.3-9.64,4.08-14.59,14.91-11.33,24.86-11.63,15.48-30.14,25.51-50.94,25.51h-9.36c-.81,0-1.47.65-1.47,1.46s.66,1.47,1.47,1.47h9.36c21.85,0,41.27-10.58,53.41-26.88,4.9-1.92,8.8-5.61,10.99-10.42,2.18-4.79,2.41-10.14.66-15.09t0,0c1-4.58,1.53-9.32,1.53-14.2v-24.38c1.4-.6,2.38-1.99,2.38-3.6s-.98-3.01-2.38-3.6v-57.97c0-4.15.37-8.21,1.1-12.15,9.51-4.45,14.03-15.53,10.34-25.36,4.35-6.46,9.81-12.14,16.08-16.75,0,0,0,0,0,0,.61.39,1.33.62,2.11.62,2.16,0,3.92-1.75,3.92-3.92,0-.21-.02-.42-.05-.63,0,0,0,0,0,0,8.8-5.13,18.85-8.32,29.59-8.98h0c1.97,2.72,9.78,12.56,19.47,12.56,11,0,19.58-12.7,19.94-13.24l.54-.81-.54-.81c-.36-.54-8.94-13.24-19.94-13.24ZM570.57,508.71c-1.3-7.1,1.99-14.32,8.21-17.98-1.79,6.47-4.59,12.52-8.21,17.98ZM574.58,507.82c2.52-4.2,4.58-8.69,6.13-13.42.07,5.14-2.2,10.1-6.13,13.42ZM583.83,364.68c-.29-5.19,1.79-10.27,5.63-13.76-2.34,4.34-4.23,8.94-5.63,13.76ZM585.91,368.21c1.59-6.53,4.13-12.68,7.47-18.3,1.59,7.03-1.41,14.39-7.47,18.3ZM652.62,316.84h7.38c.81,0,1.46-.65,1.46-1.46s-.65-1.46-1.46-1.46h-7.34c.73-3.51,3.84-6.15,7.56-6.15,4.26,0,7.73,3.47,7.73,7.73s-3.47,7.73-7.73,7.73c-3.8,0-6.96-2.76-7.6-6.38ZM666.57,326.62c-1.41,0-2.78-.27-4.11-.72,4.8-1.03,8.41-5.3,8.41-10.41s-3.61-9.38-8.41-10.41c1.32-.45,2.7-.72,4.11-.72,7.96,0,14.91,8.44,16.92,11.12-2.01,2.69-8.96,11.12-16.92,11.12ZM661.04,337.77c-9.78,1.6-15.95,13.06-17.28,15.74-14.82,5.43-25.43,19.68-25.43,36.36v52.22c-1.42.59-2.42,1.99-2.42,3.62s1,3.03,2.42,3.62v15.09c0,7.52-.9,14.9-2.68,22.07-4.61,2.41-8.07,6.44-9.75,11.39-1.74,5.11-1.38,10.59,1,15.43l.65,1.31,1.31-.65c4.84-2.38,8.46-6.51,10.2-11.62,1.65-4.86,1.41-10.06-.68-14.72,1.91-7.53,2.87-15.3,2.87-23.21v-15.06c1.46-.57,2.49-1.99,2.49-3.64s-1.03-3.07-2.49-3.64v-52.2c0-15.31,9.67-28.4,23.21-33.5,2.36,2.31,10.21,9.32,18.72,9.32.79,0,1.59-.06,2.39-.19,10.85-1.78,17.27-15.7,17.54-16.29l.4-.89-.66-.71c-.44-.48-10.97-11.61-21.82-9.84ZM616.29,501.41c-1.32,3.88-3.91,7.1-7.38,9.2-1.47-3.78-1.56-7.91-.24-11.79,1.11-3.28,3.15-6.08,5.84-8.13-.95,3.17-2.07,6.31-3.37,9.38-.31.74.03,1.6.78,1.92.19.08.38.12.57.12.57,0,1.11-.34,1.35-.89,1.17-2.78,2.21-5.6,3.1-8.45.53,2.86.32,5.82-.64,8.66ZM649.65,354.86c2.39-.5,4.86-.77,7.39-.77.81,0,1.46-.65,1.46-1.46s-.65-1.46-1.46-1.46c-2.63,0-5.19.27-7.68.77.13-1.35.6-2.65,1.41-3.78,1.2-1.68,2.99-2.78,5.02-3.12.42-.07.85-.1,1.27-.1,1.6,0,3.16.5,4.49,1.45,1.68,1.2,2.78,2.99,3.12,5.02.33,2.04-.15,4.08-1.35,5.76-1.2,1.68-2.99,2.78-5.02,3.12-3.88.64-7.56-1.75-8.65-5.42ZM665.11,362.61c-1.39.23-2.79.19-4.17-.04,1.9-.74,3.54-2.01,4.76-3.7,1.66-2.31,2.32-5.13,1.86-7.94-.46-2.81-1.99-5.27-4.3-6.93-1.69-1.21-3.65-1.89-5.68-1.99,1.23-.66,2.54-1.14,3.93-1.37,7.86-1.29,16.08,5.91,18.5,8.24-1.55,2.98-7.04,12.43-14.9,13.71ZM514.9,396.59c.87,0,1.57.7,1.57,1.57s-.7,1.57-1.57,1.57-1.57-.7-1.57-1.57.7-1.57,1.57-1.57ZM515.29,386.52h-2.92c0-2.54-2.07-4.61-4.61-4.61s-4.61,2.07-4.61,4.61h-2.92c0-4.15,3.38-7.53,7.53-7.53s7.53,3.38,7.53,7.53ZM605.09,566.76c0,2.16-1.75,3.92-3.92,3.92s-3.92-1.75-3.92-3.92,1.75-3.92,3.92-3.92,3.92,1.75,3.92,3.92Z"/>
</svg>