<?xml version="1.0" encoding="UTF-8"?>
<svg id="Layer_1" data-name="Layer 1" xmlns="http://www.w3.org/2000/svg" xmlns:xlink="http://www.w3.org/1999/xlink" viewBox="0 0 1080 1080">
  <defs>
    <style>
      .cls-1 {
        fill: url(#linear-gradient);
      }

      .cls-1, .cls-2 {
        stroke-width: 0px;
      }

      .cls-2 {
        fill: url(#linear-gradient-2);
      }
    </style>
    <linearGradient id="linear-gradient" x1="583.79" y1="656.97" x2="905.07" y2="374.46" gradientUnits="userSpaceOnUse">
      <stop offset="0" stop-color="#edc661"/>
      <stop offset=".67" stop-color="#d09c49"/>
    </linearGradient>
    <linearGradient id="linear-gradient-2" x1="218.84" y1="647.95" x2="438.18" y2="417.85" gradientUnits="userSpaceOnUse">
      <stop offset="0" stop-color="#ffe170"/>
      <stop offset=".51" stop-color="#edb31b"/>
      <stop offset=".66" stop-color="#ffe170"/>
      <stop offset="1" stop-color="#d7992a"/>
    </linearGradient>
  </defs>
  <path class="cls-1" d="M499.92,505.63c-10.18,0-18.47,8.28-18.47,18.47v81.43c0,1.2.98,2.18,2.18,2.18s2.18-.98,2.18-2.18v-36.96c3.39,4.01,8.45,6.57,14.11,6.57,10.18,0,18.47-8.28,18.47-18.47v-32.57c0-10.18-8.28-18.47-18.47-18.47ZM514.03,556.67c0,7.78-6.33,14.11-14.11,14.11h0c-7.78,0-14.11-6.33-14.11-14.11v-32.57c0-7.78,6.33-14.11,14.11-14.11s14.11,6.33,14.11,14.11v32.57ZM681.26,524.1v32.57c0,7.78,6.33,14.11,14.11,14.11s14.11-6.33,14.11-14.11c0-1.2.98-2.18,2.18-2.18s2.18.98,2.18,2.18c0,10.18-8.28,18.47-18.47,18.47s-18.47-8.28-18.47-18.47v-32.57c0-10.18,8.28-18.47,18.47-18.47s18.47,8.28,18.47,18.47c0,1.2-.98,2.18-2.18,2.18s-2.18-.98-2.18-2.18c0-7.78-6.33-14.11-14.11-14.11s-14.11,6.33-14.11,14.11ZM760.51,505.63c-10.18,0-18.47,8.28-18.47,18.47v32.57c0,10.18,8.28,18.47,18.47,18.47s18.47-8.28,18.47-18.47v-32.57c0-10.18-8.28-18.47-18.47-18.47ZM774.62,556.67c0,7.78-6.33,14.11-14.11,14.11s-14.11-6.33-14.11-14.11v-32.57c0-7.78,6.33-14.11,14.11-14.11s14.11,6.33,14.11,14.11v32.57ZM648.68,524.1v32.57c0,10.18-8.28,18.47-18.47,18.47s-18.47-8.28-18.47-18.47v-5.21c0-7.31,5.95-13.25,13.25-13.25h5.21c1.2,0,2.18.98,2.18,2.18s-.98,2.18-2.18,2.18h-5.21c-4.9,0-8.89,3.99-8.89,8.89v5.21c0,7.78,6.33,14.11,14.11,14.11s14.11-6.33,14.11-14.11v-32.57c0-7.78-6.33-14.11-14.11-14.11s-14.11,6.33-14.11,14.11c0,1.2-.98,2.18-2.18,2.18s-2.18-.98-2.18-2.18c0-10.18,8.28-18.47,18.47-18.47s18.47,8.28,18.47,18.47ZM579.18,524.1c0-7.78-6.33-14.11-14.11-14.11s-14.11,6.33-14.11,14.11v32.57c0,7.78,6.33,14.11,14.11,14.11s14.11-6.33,14.11-14.11c0-1.2.98-2.18,2.18-2.18s2.18.98,2.18,2.18c0,10.18-8.28,18.47-18.47,18.47s-18.47-8.28-18.47-18.47v-32.57c0-10.18,8.28-18.47,18.47-18.47s18.47,8.28,18.47,18.47-8.28,18.47-18.47,18.47v-4.36c7.78,0,14.11-6.33,14.11-14.11ZM811.55,524.1v32.57c0,7.78,6.33,14.11,14.11,14.11s14.11-6.33,14.11-14.11c0-1.2.98-2.18,2.18-2.18s2.18.98,2.18,2.18c0,10.18-8.28,18.47-18.47,18.47s-18.47-8.28-18.47-18.47v-32.57c0-10.18,8.28-18.47,18.47-18.47s18.47,8.28,18.47,18.47c0,1.2-.98,2.18-2.18,2.18s-2.18-.98-2.18-2.18c0-7.78-6.33-14.11-14.11-14.11s-14.11,6.33-14.11,14.11ZM762.7,540.38c0,1.21-.98,2.19-2.19,2.19s-2.19-.98-2.19-2.19.98-2.19,2.19-2.19,2.19.98,2.19,2.19ZM502.12,540.38c0,1.21-.98,2.19-2.19,2.19s-2.19-.98-2.19-2.19.98-2.19,2.19-2.19,2.19.98,2.19,2.19ZM904.89,510c0-1.21.98-2.19,2.19-2.19s2.19.98,2.19,2.19-.98,2.19-2.19,2.19-2.19-.98-2.19-2.19ZM904.91,556.67c0-7.78-6.33-14.11-14.11-14.11s-14.11,6.33-14.11,14.11v16.29c0,1.2-.98,2.18-2.18,2.18s-2.18-.98-2.18-2.18v-97.72c0-1.2.98-2.18,2.18-2.18s2.18.98,2.18,2.18v69.54c3.39-4.01,8.45-6.57,14.11-6.57,7.78,0,14.11-6.33,14.11-14.11,0-1.2.98-2.18,2.18-2.18s2.18.98,2.18,2.18c0,7.04-3.96,13.17-9.77,16.29,5.81,3.11,9.77,9.25,9.77,16.29l-.02,16.5c-.11,1.1-1.03,1.96-2.16,1.96s-2.05-.86-2.16-1.96l-.02-16.5ZM652.99,446.35c-.01,6.19-.02,12.39-.04,18.58,0,3.48,2.03,5.75,4.64,5.81h1.16v2.32h-1.16c-3.77-.06-6.97-3.02-6.97-8.13v-18.58h-3.48v-2.32h3.48v-10.39h2.44l-.06,1.16-.02,9.23h5.77v2.32h-5.77ZM679.77,473.06h-.11v-39.48h2.32v13.6c1.96-1.88,4.95-3.11,8.13-3.15,5.57,0,10.51,3.72,10.45,8.13v19.74l.06,1.22h-2.26l-.06-1.16-.06-19.8c0-3.31-3.31-5.75-8.13-5.81-4.76,0-8.07,2.61-8.13,5.81v19.74l.06,1.22h-2.26v-.06ZM740.03,464.99v-1.16h2.32v1.16c0,4.41-4.82,8.13-10.45,8.07-5.57,0-10.39-3.6-10.39-8.07l-.02-5.28h-.03v-2.32h.02l-.02-5.22c0-4.47,4.93-8.07,10.45-8.13,5.57,0,10.51,3.72,10.45,8.13v7.55h-18.55l-.02,5.22c0,3.31,3.43,5.86,8.13,5.81,4.76,0,8.13-2.5,8.13-5.75ZM723.81,457.39l16.28.05-.06-5.28c0-3.31-3.31-5.75-8.13-5.81-4.76,0-8.07,2.56-8.07,5.86l-.02,5.17ZM549.61,626.66v1.16h-2.32v-1.16c0-3.25-3.31-5.69-8.13-5.75-4.76,0-8.07,2.56-8.07,5.86l-.06,12.71c0,3.31,3.43,5.86,8.13,5.81,4.76,0,8.13-2.5,8.13-5.81v-1.16h2.32v1.16c0,4.47-4.82,8.19-10.45,8.13-5.57,0-10.39-3.6-10.39-8.07l-.06-12.83c0-4.47,4.93-8.07,10.45-8.13,5.57,0,10.45,3.66,10.45,8.07ZM570.51,626.71c0-4.41,4.99-8.07,10.45-8.13,5.52,0,10.51,3.77,10.51,8.19l-.06,12.71c0,4.41-4.88,8.19-10.45,8.13-5.52,0-10.39-3.66-10.45-8.13v-12.77ZM572.83,626.71v12.77c0,3.25,3.48,5.86,8.13,5.81,4.76,0,8.19-2.5,8.19-5.75l-.06-12.83c0-3.25-3.37-5.75-8.13-5.81-4.7,0-8.13,2.56-8.13,5.81ZM613.47,609.3v-1.16h2.32v32.57c-.06,3.02,1.34,4.64,3.48,4.59h1.16v2.32h-1.16c-3.19.06-5.86-3.08-5.81-6.91v-31.41ZM640.18,609.3v-1.16h2.32v32.57c-.06,3.02,1.34,4.64,3.48,4.59h1.16v2.32h-1.16c-3.19.06-5.86-3.08-5.81-6.91v-31.41ZM684.3,639.54v-1.16h2.32v1.16c0,4.41-4.82,8.13-10.45,8.07-5.57,0-10.39-3.6-10.39-8.07l-.02-5.28h-.03v-2.32h.02l-.02-5.22c0-4.47,4.93-8.07,10.45-8.13,5.57,0,10.51,3.72,10.45,8.13v7.55h-18.55l-.02,5.22c0,3.31,3.43,5.86,8.13,5.81,4.76,0,8.13-2.5,8.13-5.75ZM668.08,631.94l16.28.05-.06-5.28c0-3.31-3.31-5.75-8.13-5.81-4.76,0-8.07,2.56-8.07,5.86l-.02,5.17ZM728.42,626.66v1.16h-2.32v-1.16c0-3.25-3.31-5.69-8.13-5.75-4.76,0-8.07,2.56-8.07,5.86l-.06,12.71c0,3.31,3.43,5.86,8.13,5.81,4.76,0,8.13-2.5,8.13-5.81v-1.16h2.32v1.16c0,4.47-4.82,8.19-10.45,8.13-5.57,0-10.39-3.6-10.39-8.07l-.06-12.83c0-4.47,4.93-8.07,10.45-8.13,5.57,0,10.45,3.66,10.45,8.07ZM752.84,620.91c-.01,6.19-.02,12.39-.04,18.58,0,3.48,2.03,5.75,4.64,5.81h1.16v2.32h-1.16c-3.77-.06-6.97-3.02-6.97-8.13v-18.58h-3.48v-2.32h3.48v-10.39h2.44l-.06,1.16-.02,9.23h5.77v2.32h-5.77ZM780.73,611.97h-1.16v-2.32h2.38v2.32h-1.22ZM779.57,619.75v-1.16h2.32v29.03h-2.32v-27.87ZM802.79,620.15l-.52-1.57h2.44l.29.75,8.24,23.57,8.13-23.57.29-.75h2.44l-.52,1.57-9.23,26.71-.29.75h-1.63l-.29-.75-9.35-26.71ZM860.79,639.54v-1.16h2.32v1.16c0,4.41-4.82,8.13-10.45,8.07-5.57,0-10.39-3.6-10.39-8.07l-.02-5.28h-.03v-2.32h.02l-.02-5.22c0-4.47,4.93-8.07,10.45-8.13,5.57,0,10.51,3.72,10.45,8.13v7.55h-18.55l-.02,5.22c0,3.31,3.43,5.86,8.13,5.81,4.76,0,8.13-2.5,8.13-5.75ZM844.57,631.94l16.28.05-.06-5.28c0-3.31-3.31-5.75-8.13-5.81-4.76,0-8.07,2.56-8.07,5.86l-.02,5.17Z"/>
  <path class="cls-2" d="M394.38,550.64c6.88-7.2,6.78-18.66-.3-25.73l-.95-.95-.94.95c-7.02,7.02-7.18,18.33-.48,25.55v12.11c0,27.01-9.87,51.75-26.19,70.8-4.65,0-9.06,1.73-12.48,4.91-3.44,3.18-5.5,7.47-5.84,12.12-18.07,13.31-40.39,21.19-64.5,21.19-60.11,0-109.01-48.9-109.01-109.02,0-25.04,8.13-46.15,23.52-61.04,13.69-13.25,32.02-20.55,51.62-20.55,7.82,0,17.81.51,25.66,4.49,5.16,2.61,10.72,9.11,10.72,15.05v15.69h-15.68c-8.65,0-15.69-7.04-15.69-15.69,0-1.36.18-2.72.52-4.02.19-.71-.24-1.44-.95-1.63-.71-.19-1.44.24-1.63.95-.41,1.53-.61,3.11-.61,4.7,0,.62.03,1.24.09,1.85,0,0,0,0,0,0-17.29,3.05-29.78,18.39-29.18,36.02.31,9.18,4.13,17.76,10.74,24.16,4.65,4.5,10.34,7.58,16.51,9.02-6.1,2.97-10.32,9.24-10.32,16.47,0,9.66,7.52,17.59,17.02,18.26.65,9.32,8.29,16.73,17.7,17.01,0,0,0,0,.02,0,.17.07.36.12.55.12,14.81,0,27.58-4.57,36.92-13.22,10.04-9.3,15.35-22.8,15.35-39.05v-55.41c3.24-3.43,5-7.88,5-12.61s-1.76-9.18-5-12.61v-4.38c0-13.65,4.12-26.5,11.32-37.2,0,0,0,0,0,0,.24.05.49.08.75.08,1.97,0,3.57-1.6,3.57-3.57,0-.62-.16-1.2-.44-1.71,0,0,0,0,0,0,6.41-7.77,14.59-14.09,24.04-18.32,0,0,0,0,0,0,2.13,1.51,8.89,5.88,15.84,5.88,1.53,0,3.07-.21,4.57-.72,9.51-3.19,13.24-16.65,13.4-17.22l.23-.86-.7-.54c-.47-.36-11.57-8.85-21.07-5.66-8.5,2.85-12.39,13.92-13.22,16.63h0c-9.89,4.4-18.44,11-25.12,19.12,0,0,0,0,0,0-.34-.11-.71-.17-1.09-.17-1.97,0-3.57,1.6-3.57,3.57,0,.75.23,1.44.62,2.01h0c-7.49,11.13-11.77,24.48-11.77,38.68v4.38c-3.24,3.43-5,7.88-5,12.61s1.76,9.18,5,12.61v54.01h-60.97l-5.53.07s-.05,0-.08,0v-.1c-.51,0-1.01.03-1.5.07-16.97-.8-30.49-14.34-31.07-31.5-.56-16.3,10.99-30.48,26.98-33.3,2,7.96,9.22,13.87,17.8,13.87h18.35v-18.35c0-.59-.04-1.18-.13-1.78,0,0,0,0,0,0v-12.59c0-12.99-10.04-23.68-22.76-24.73-.15-.92-.94-1.62-1.9-1.62-1.07,0-1.94.87-1.94,1.94s.87,1.94,1.94,1.94c.7,0,1.31-.38,1.65-.94,12.11.92,21.69,11.06,21.69,23.41v8.16c-.53-1.17-1.19-2.31-1.93-3.39,0,0,0,0,0,0v-3.9c0-11.21-8.61-20.45-19.56-21.46-.24-.79-.97-1.37-1.84-1.37-1.07,0-1.94.87-1.94,1.94s.87,1.94,1.94,1.94c.8,0,1.49-.48,1.78-1.18,10.25.97,18.29,9.63,18.29,20.12v2.15s0,0,0,0c-.75-.9-1.56-1.75-2.41-2.53-.45-8.71-7.23-15.78-15.82-16.67-.24-.79-.97-1.37-1.84-1.37-1.07,0-1.94.87-1.94,1.94s.87,1.94,1.94,1.94c.8,0,1.48-.48,1.78-1.17,7.47.81,13.45,6.68,14.43,14.1-1.16-.92-2.38-1.71-3.58-2.32-8.35-4.23-18.74-4.78-26.86-4.78-20.29,0-39.28,7.57-53.47,21.3-15.92,15.41-24.34,37.18-24.34,62.96,0,61.58,50.1,111.68,111.68,111.68,24.75,0,47.64-8.09,66.17-21.77.09,0,.19,0,.29,0,4.65,0,9.07-1.73,12.5-4.91,3.52-3.27,5.59-7.68,5.87-12.45,16.73-19.53,26.85-44.88,26.85-72.56v-11.93ZM378.89,426.98c-3.32,1.11-6.89-.4-8.47-3.4,2.12-.77,4.31-1.43,6.54-1.99.71-.18,1.15-.9.97-1.62-.18-.71-.9-1.15-1.61-.97-2.27.57-4.5,1.24-6.67,2.03-.33-3.21,1.58-6.34,4.76-7.4.74-.25,1.49-.37,2.23-.37,2.94,0,5.7,1.86,6.68,4.8,1.23,3.68-.76,7.68-4.44,8.92ZM378.91,408.85c6.88-2.31,15.34,2.97,17.85,4.71-.96,2.91-4.52,12.21-11.4,14.52-1.22.41-2.48.58-3.76.57,3.85-2.28,5.73-7.02,4.25-11.43h0c-1.48-4.41-5.84-7.06-10.29-6.56,1.01-.77,2.12-1.4,3.34-1.81ZM241.68,588.04c0-7.59,5.44-13.94,12.63-15.35.82,9.34,8.68,16.7,18.24,16.7.12,0,.24,0,.37,0-.68,8-7.41,14.3-15.58,14.3-8.63,0-15.65-7.02-15.65-15.65ZM306.5,586.73c-8.17,0-14.89-6.3-15.58-14.29h31.17c-.69,7.99-7.41,14.29-15.58,14.29ZM306.5,589.39c.12,0,.24,0,.35,0-.68,8-7.41,14.3-15.58,14.3s-15.05-6.44-15.6-14.57c6.31-1.09,11.51-5.41,13.85-11.19,2.72,6.71,9.3,11.46,16.98,11.46ZM258.7,606.29c7.07-.53,13.04-5.09,15.59-11.39,2.55,6.3,8.51,10.86,15.58,11.39-.65,8.03-7.39,14.37-15.59,14.37s-14.94-6.34-15.59-14.37ZM284.97,619.89s0,0-.01,0c2.8-2.01,5.01-4.79,6.32-8.03.8,1.98,1.94,3.82,3.38,5.42,0,0,0,0,0,0-3.05,1.15-6.29,2.02-9.69,2.61ZM309.41,608.26c-3.54,3.27-7.6,5.93-12.11,7.93-2.69-2.64-4.34-6.16-4.64-9.91,7.07-.53,13.04-5.1,15.59-11.41,1.25,3.11,3.35,5.85,6.12,7.89,0,0,0,0,0,0-1.48,1.97-3.13,3.8-4.95,5.48ZM315.9,600.6c-3.68-2.74-5.97-6.92-6.28-11.48,6.42-1.11,11.7-5.56,13.98-11.5,0,0,0,0,0,0-.84,8.77-3.45,16.53-7.7,22.97ZM328.91,503.15c0,2.96-.81,5.81-2.34,8.27v-16.54c1.53,2.46,2.34,5.31,2.34,8.27ZM321.56,503.15c0-2.96.81-5.81,2.34-8.27v16.54c-1.53-2.46-2.34-5.31-2.34-8.27ZM257.42,572.5l5.53-.07h25.18c-.69,7.99-7.41,14.29-15.58,14.29s-14.86-6.27-15.58-14.23c.15,0,.3.01.46.01ZM354.86,640.23c2.29-2.12,5.1-3.49,8.12-3.98-3.92,4.27-8.17,8.21-12.71,11.8.71-2.99,2.3-5.69,4.6-7.82ZM359.85,645.62c-2,1.85-4.38,3.12-6.95,3.74,3.98-3.22,7.74-6.71,11.23-10.45-.81,2.54-2.27,4.84-4.28,6.7ZM393.13,527.82c4.43,5.28,4.84,12.81,1.24,18.51v-8.48c0-.74-.59-1.33-1.33-1.33s-1.33.59-1.33,1.33v8.19c-3.4-5.66-2.93-13.03,1.42-18.22ZM436.99,434.63c-.33-.49-8.15-12.07-18.18-12.07-8.88,0-16.03,9.07-17.78,11.49-10.28.61-19.91,3.66-28.32,8.57,0,0,0,0,0,0-.6-.45-1.34-.72-2.14-.72-1.97,0-3.57,1.6-3.57,3.57,0,.29.04.57.1.83,0,0,0,0,0,0-6.05,4.44-11.3,9.92-15.47,16.18-9.01,4-13.27,14.44-9.64,23.6-.73,3.84-1.11,7.81-1.11,11.86v52.8c-1.35.51-2.31,1.81-2.31,3.34s.96,2.83,2.31,3.34v22.17c0,4.16-.44,8.21-1.28,12.12-8.79,3.72-13.3,13.6-10.33,22.66-10.6,14.11-27.48,23.26-46.44,23.26h-8.53c-.74,0-1.34.59-1.34,1.33s.6,1.34,1.34,1.34h8.53c19.92,0,37.63-9.64,48.7-24.51,4.47-1.75,8.02-5.12,10.02-9.5,1.98-4.37,2.2-9.24.6-13.76t0,0c.91-4.17,1.39-8.5,1.39-12.94v-22.23c1.28-.55,2.17-1.81,2.17-3.29s-.89-2.74-2.17-3.29v-52.85c0-3.78.34-7.48,1.01-11.07,8.67-4.06,12.79-14.16,9.43-23.12,3.97-5.89,8.94-11.07,14.66-15.27,0,0,0,0,0,0,.56.36,1.21.57,1.92.57,1.97,0,3.57-1.6,3.57-3.57,0-.2-.02-.38-.05-.57,0,0,0,0,0,0,8.02-4.68,17.19-7.59,26.97-8.19h0c1.8,2.48,8.92,11.45,17.75,11.45,10.03,0,17.85-11.57,18.18-12.07l.49-.74-.49-.74ZM348.5,467.66c-2.13,3.95-3.86,8.15-5.13,12.55-.26-4.73,1.63-9.36,5.13-12.55ZM338.76,595.12c-1.63,5.89-4.18,11.41-7.48,16.4-1.19-6.47,1.81-13.06,7.48-16.4ZM334.94,610.71c2.3-3.83,4.18-7.92,5.59-12.23.06,4.69-2,9.2-5.59,12.23ZM345.27,483.42c1.45-5.95,3.77-11.56,6.81-16.69,1.45,6.41-1.28,13.12-6.81,16.69ZM406.09,436.59h6.73c.74,0,1.33-.59,1.33-1.33s-.59-1.33-1.33-1.33h-6.69c.67-3.2,3.5-5.61,6.9-5.61,3.88,0,7.04,3.16,7.04,7.04s-3.16,7.04-7.04,7.04c-3.47,0-6.35-2.52-6.93-5.82ZM418.81,445.51c-1.28,0-2.54-.24-3.74-.65,4.38-.94,7.67-4.84,7.67-9.49s-3.29-8.55-7.67-9.49c1.21-.41,2.46-.65,3.75-.65,7.26,0,13.6,7.69,15.43,10.14-1.83,2.45-8.17,10.14-15.43,10.14ZM335.01,632.64s0,0,0,0c-4.6-.61-9.19.51-13,3.2-3.82,2.69-6.43,6.65-7.4,11.2-10.03,4.85-21.28,7.58-33.15,7.58h-7.17c-.74,0-1.34.59-1.34,1.33s.6,1.33,1.34,1.33h7.17c12.35,0,24.06-2.85,34.48-7.92,0,0,0,0,0,0,.93.14,1.86.22,2.79.22,3.76,0,7.43-1.15,10.57-3.37,3.92-2.76,6.56-6.85,7.47-11.54,0,0,0,0,0,0,14.64-14.36,23.74-34.35,23.74-56.42v-45.49c6.66-7.07,6.66-18.16,0-25.23v-4.34c0-13.75,5.71-26.7,15.43-35.95,0,0,0,0,.01-.01.63.06,1.25.11,1.87.11,8.98,0,16.86-6.6,18.21-15.74l.19-1.32-1.32-.19c-9.95-1.47-19.24,5.37-20.85,15.26,0,0,0,0,0,0-10.21,9.75-16.2,23.36-16.2,37.83v4.35c-3.23,3.43-5,7.88-5,12.61s1.77,9.17,5,12.6v45.5c0,21.28-8.74,40.55-22.83,54.41ZM323.54,638.03c2.62-1.84,5.66-2.82,8.8-2.87-4.4,3.94-9.25,7.37-14.47,10.22,1.1-2.95,3.05-5.5,5.68-7.35ZM320.84,646.76s.01,0,.02-.01c4.2-2.42,8.15-5.22,11.82-8.34,0,0,0,0,0,0-2.35,4.52-6.79,7.66-11.84,8.35ZM393.13,452.56c-1.61,6.74-7.45,11.57-14.21,12.05,0,0,0,0,0,0,2.23-1.81,4.62-3.43,7.18-4.85.64-.36.87-1.17.52-1.81-.36-.64-1.17-.87-1.81-.52-2.51,1.39-4.87,2.97-7.08,4.72,2.55-6.03,8.69-9.98,15.41-9.58ZM360.51,528.4v-16.53c3.11,5.05,3.11,11.49,0,16.53ZM355.51,520.13c0-2.96.81-5.8,2.33-8.25v16.5c-1.52-2.45-2.33-5.28-2.33-8.24ZM416.53,503.15c0-4.92-1.92-9.54-5.39-13.02l-.94-.94-.94.94c-7.02,7.02-7.17,18.34-.47,25.55v35.09c-1.31.53-2.23,1.81-2.23,3.31s.92,2.78,2.23,3.31v13.34c0,6.96-.6,13.82-1.77,20.53-4.01,2.38-6.92,6.13-8.24,10.63-1.34,4.55-.89,9.35,1.26,13.55-5.84,14.27-14.54,27.38-25.77,38.61-.52.52-.52,1.36,0,1.89.26.26.6.39.95.39s.68-.13.94-.39c11.58-11.58,20.51-25.1,26.5-39.82,4.03-2.38,6.96-6.15,8.29-10.66,1.34-4.59.87-9.4-1.31-13.63,1.22-6.89,1.83-13.95,1.83-21.1v-13.33c1.31-.53,2.24-1.81,2.24-3.31s-.93-2.79-2.24-3.31v-34.93c3.28-3.44,5.08-7.93,5.08-12.69ZM410.19,493.04c2.38,2.83,3.67,6.37,3.67,10.11,0,3.01-.85,5.88-2.41,8.36v-8.36c0-.74-.6-1.34-1.34-1.34s-1.33.6-1.33,1.34v8.11c-3.41-5.67-2.94-13.03,1.41-18.22ZM406.28,595.04c-1.19,5.74-2.82,11.37-4.84,16.83-1.94-6.05-.01-12.74,4.84-16.83ZM408.37,604.71c-.74,2.54-2.09,4.81-3.9,6.64,1.69-4.73,3.08-9.58,4.16-14.52.59,2.58.51,5.28-.26,7.88ZM280.88,500.11h-2.67c0-2.32-1.88-4.2-4.2-4.2s-4.2,1.88-4.2,4.2h-2.67c0-3.79,3.08-6.87,6.87-6.87s6.87,3.08,6.87,6.87ZM280.53,509.29c.79,0,1.43.64,1.43,1.43s-.64,1.43-1.43,1.43-1.43-.64-1.43-1.43.64-1.43,1.43-1.43ZM389.52,512.16c0-1.97,1.6-3.57,3.57-3.57s3.57,1.6,3.57,3.57-1.6,3.57-3.57,3.57-3.57-1.6-3.57-3.57ZM389.52,495.92c0-1.97,1.6-3.57,3.57-3.57s3.57,1.6,3.57,3.57-1.6,3.57-3.57,3.57-3.57-1.6-3.57-3.57ZM362.75,664.44c0,1.97-1.6,3.57-3.57,3.57s-3.57-1.6-3.57-3.57,1.6-3.57,3.57-3.57,3.57,1.6,3.57,3.57ZM413.76,455.67c-8.92,1.46-14.55,11.9-15.75,14.35-13.51,4.95-23.18,17.94-23.18,33.15v47.61c-1.3.54-2.21,1.81-2.21,3.3s.91,2.77,2.21,3.3v13.75c0,6.85-.82,13.58-2.44,20.12-4.21,2.2-7.36,5.87-8.89,10.38-1.58,4.66-1.26,9.65.92,14.07l.59,1.2,1.2-.59c4.41-2.17,7.71-5.94,9.3-10.59,1.51-4.43,1.28-9.17-.62-13.42,1.74-6.87,2.61-13.95,2.61-21.16v-13.73c1.33-.52,2.27-1.81,2.27-3.32s-.94-2.8-2.27-3.32v-47.59c0-13.96,8.81-25.89,21.16-30.54,2.15,2.11,9.3,8.49,17.07,8.49.72,0,1.45-.06,2.18-.18,9.89-1.62,15.74-14.31,15.99-14.85l.37-.81-.61-.65c-.4-.43-10-10.59-19.89-8.97ZM372.97,604.86c-1.2,3.54-3.57,6.48-6.73,8.39-1.34-3.44-1.43-7.21-.22-10.75,1.02-2.99,2.87-5.54,5.32-7.42-.87,2.89-1.89,5.75-3.07,8.55-.29.68.03,1.46.71,1.75.17.07.35.11.52.11.52,0,1.01-.31,1.23-.81,1.07-2.53,2.01-5.1,2.83-7.7.48,2.61.3,5.31-.58,7.89ZM403.38,471.25c2.18-.46,4.43-.7,6.74-.7.74,0,1.33-.6,1.33-1.33s-.6-1.33-1.33-1.33c-2.4,0-4.74.24-7,.7.11-1.23.55-2.42,1.29-3.45,1.1-1.53,2.73-2.54,4.58-2.84.39-.06.77-.09,1.15-.09,1.46,0,2.88.45,4.09,1.33,1.53,1.1,2.54,2.72,2.84,4.58.3,1.86-.13,3.72-1.23,5.25-1.1,1.53-2.73,2.54-4.58,2.84-3.54.58-6.89-1.6-7.88-4.94ZM417.47,478.32c-1.27.21-2.55.17-3.8-.04,1.73-.67,3.23-1.83,4.34-3.37,1.51-2.11,2.12-4.68,1.7-7.23-.42-2.56-1.81-4.8-3.92-6.32-1.54-1.11-3.33-1.72-5.18-1.81,1.12-.6,2.32-1.04,3.59-1.25,7.17-1.18,14.66,5.39,16.87,7.51-1.41,2.71-6.42,11.33-13.59,12.5Z"/>
</svg>