<?xml version="1.0" encoding="UTF-8"?>
<svg id="Layer_1" data-name="Layer 1" xmlns="http://www.w3.org/2000/svg" viewBox="0 0 427.82 214.03">
  <defs>
    <style>
      .cls-1 {
        stroke-width: 0px;
      }
    </style>
  </defs>
  <path class="cls-1" d="M18.47,72.05c-10.18,0-18.47,8.28-18.47,18.47v81.43c0,1.2.98,2.18,2.18,2.18s2.18-.98,2.18-2.18v-36.96c3.39,4.01,8.45,6.57,14.11,6.57,10.18,0,18.47-8.28,18.47-18.47v-32.57c0-10.18-8.28-18.47-18.47-18.47ZM32.57,123.09c0,7.78-6.33,14.11-14.11,14.11h0c-7.78,0-14.11-6.33-14.11-14.11v-32.57c0-7.78,6.33-14.11,14.11-14.11s14.11,6.33,14.11,14.11v32.57ZM199.8,90.52v32.57c0,7.78,6.33,14.11,14.11,14.11s14.11-6.33,14.11-14.11c0-1.2.98-2.18,2.18-2.18s2.18.98,2.18,2.18c0,10.18-8.28,18.47-18.47,18.47s-18.47-8.28-18.47-18.47v-32.57c0-10.18,8.28-18.47,18.47-18.47s18.47,8.28,18.47,18.47c0,1.2-.98,2.18-2.18,2.18s-2.18-.98-2.18-2.18c0-7.78-6.33-14.11-14.11-14.11s-14.11,6.33-14.11,14.11ZM279.05,72.05c-10.18,0-18.47,8.28-18.47,18.47v32.57c0,10.18,8.28,18.47,18.47,18.47s18.47-8.28,18.47-18.47v-32.57c0-10.18-8.28-18.47-18.47-18.47ZM293.16,123.09c0,7.78-6.33,14.11-14.11,14.11s-14.11-6.33-14.11-14.11v-32.57c0-7.78,6.33-14.11,14.11-14.11s14.11,6.33,14.11,14.11v32.57ZM167.22,90.52v32.57c0,10.18-8.28,18.47-18.47,18.47s-18.47-8.28-18.47-18.47v-5.21c0-7.31,5.95-13.25,13.25-13.25h5.21c1.2,0,2.18.98,2.18,2.18s-.98,2.18-2.18,2.18h-5.21c-4.9,0-8.89,3.99-8.89,8.89v5.21c0,7.78,6.33,14.11,14.11,14.11s14.11-6.33,14.11-14.11v-32.57c0-7.78-6.33-14.11-14.11-14.11s-14.11,6.33-14.11,14.11c0,1.2-.98,2.18-2.18,2.18s-2.18-.98-2.18-2.18c0-10.18,8.28-18.47,18.47-18.47s18.47,8.28,18.47,18.47ZM97.72,90.52c0-7.78-6.33-14.11-14.11-14.11s-14.11,6.33-14.11,14.11v32.57c0,7.78,6.33,14.11,14.11,14.11s14.11-6.33,14.11-14.11c0-1.2.98-2.18,2.18-2.18s2.18.98,2.18,2.18c0,10.18-8.28,18.47-18.47,18.47s-18.47-8.28-18.47-18.47v-32.57c0-10.18,8.28-18.47,18.47-18.47s18.47,8.28,18.47,18.47-8.28,18.47-18.47,18.47v-4.36c7.78,0,14.11-6.33,14.11-14.11ZM330.09,90.52v32.57c0,7.78,6.33,14.11,14.11,14.11s14.11-6.33,14.11-14.11c0-1.2.98-2.18,2.18-2.18s2.18.98,2.18,2.18c0,10.18-8.28,18.47-18.47,18.47s-18.47-8.28-18.47-18.47v-32.57c0-10.18,8.28-18.47,18.47-18.47s18.47,8.28,18.47,18.47c0,1.2-.98,2.18-2.18,2.18s-2.18-.98-2.18-2.18c0-7.78-6.33-14.11-14.11-14.11s-14.11,6.33-14.11,14.11ZM281.25,106.8c0,1.21-.98,2.19-2.19,2.19s-2.19-.98-2.19-2.19.98-2.19,2.19-2.19,2.19.98,2.19,2.19ZM20.66,106.8c0,1.21-.98,2.19-2.19,2.19s-2.19-.98-2.19-2.19.98-2.19,2.19-2.19,2.19.98,2.19,2.19ZM423.43,76.42c0-1.21.98-2.19,2.19-2.19s2.19.98,2.19,2.19-.98,2.19-2.19,2.19-2.19-.98-2.19-2.19ZM423.45,123.09c0-7.78-6.33-14.11-14.11-14.11s-14.11,6.33-14.11,14.11v16.29c0,1.2-.98,2.18-2.18,2.18s-2.18-.98-2.18-2.18V41.66c0-1.2.98-2.18,2.18-2.18s2.18.98,2.18,2.18v69.54c3.39-4.01,8.45-6.57,14.11-6.57,7.78,0,14.11-6.33,14.11-14.11,0-1.2.98-2.18,2.18-2.18s2.18.98,2.18,2.18c0,7.04-3.96,13.17-9.77,16.29,5.81,3.11,9.77,9.25,9.77,16.29l-.02,16.5c-.11,1.1-1.03,1.96-2.16,1.96s-2.05-.86-2.16-1.96l-.02-16.5ZM171.53,12.77c-.01,6.19-.02,12.39-.04,18.58,0,3.48,2.03,5.75,4.64,5.81h1.16v2.32h-1.16c-3.77-.06-6.97-3.02-6.97-8.13V12.77h-3.48v-2.32h3.48V.06h2.44l-.06,1.16-.02,9.23h5.77v2.32h-5.77ZM198.31,39.48h-.11V0h2.32v13.6c1.96-1.88,4.95-3.11,8.13-3.15,5.57,0,10.51,3.72,10.45,8.13v19.74l.06,1.22h-2.26l-.06-1.16-.06-19.8c0-3.31-3.31-5.75-8.13-5.81-4.76,0-8.07,2.61-8.13,5.81v19.74l.06,1.22h-2.26v-.06ZM258.57,31.41v-1.16h2.32v1.16c0,4.41-4.82,8.13-10.45,8.07-5.57,0-10.39-3.6-10.39-8.07l-.02-5.28h-.03v-2.32h.02l-.02-5.22c0-4.47,4.93-8.07,10.45-8.13,5.57,0,10.51,3.72,10.45,8.13v7.55h-18.55l-.02,5.22c0,3.31,3.43,5.86,8.13,5.81,4.76,0,8.13-2.5,8.13-5.75ZM242.35,23.81l16.28.05-.06-5.28c0-3.31-3.31-5.75-8.13-5.81-4.76,0-8.07,2.56-8.07,5.86l-.02,5.17ZM68.15,193.08v1.16h-2.32v-1.16c0-3.25-3.31-5.69-8.13-5.75-4.76,0-8.07,2.56-8.07,5.86l-.06,12.71c0,3.31,3.43,5.86,8.13,5.81,4.76,0,8.13-2.5,8.13-5.81v-1.16h2.32v1.16c0,4.47-4.82,8.19-10.45,8.13-5.57,0-10.39-3.6-10.39-8.07l-.06-12.83c0-4.47,4.93-8.07,10.45-8.13,5.57,0,10.45,3.66,10.45,8.07ZM89.05,193.13c0-4.41,4.99-8.07,10.45-8.13,5.52,0,10.51,3.77,10.51,8.19l-.06,12.71c0,4.41-4.88,8.19-10.45,8.13-5.52,0-10.39-3.66-10.45-8.13v-12.77ZM91.37,193.13v12.77c0,3.25,3.48,5.86,8.13,5.81,4.76,0,8.19-2.5,8.19-5.75l-.06-12.83c0-3.25-3.37-5.75-8.13-5.81-4.7,0-8.13,2.56-8.13,5.81ZM132.01,175.72v-1.16h2.32v32.57c-.06,3.02,1.34,4.64,3.48,4.59h1.16v2.32h-1.16c-3.19.06-5.86-3.08-5.81-6.91v-31.41ZM158.72,175.72v-1.16h2.32v32.57c-.06,3.02,1.34,4.64,3.48,4.59h1.16v2.32h-1.16c-3.19.06-5.86-3.08-5.81-6.91v-31.41ZM202.84,205.96v-1.16h2.32v1.16c0,4.41-4.82,8.13-10.45,8.07-5.57,0-10.39-3.6-10.39-8.07l-.02-5.28h-.03v-2.32h.02l-.02-5.22c0-4.47,4.93-8.07,10.45-8.13,5.57,0,10.51,3.72,10.45,8.13v7.55h-18.55l-.02,5.22c0,3.31,3.43,5.86,8.13,5.81,4.76,0,8.13-2.5,8.13-5.75ZM186.62,198.36l16.28.05-.06-5.28c0-3.31-3.31-5.75-8.13-5.81-4.76,0-8.07,2.56-8.07,5.86l-.02,5.17ZM246.96,193.08v1.16h-2.32v-1.16c0-3.25-3.31-5.69-8.13-5.75-4.76,0-8.07,2.56-8.07,5.86l-.06,12.71c0,3.31,3.43,5.86,8.13,5.81,4.76,0,8.13-2.5,8.13-5.81v-1.16h2.32v1.16c0,4.47-4.82,8.19-10.45,8.13-5.57,0-10.39-3.6-10.39-8.07l-.06-12.83c0-4.47,4.93-8.07,10.45-8.13,5.57,0,10.45,3.66,10.45,8.07ZM271.38,187.33c-.01,6.19-.02,12.39-.04,18.58,0,3.48,2.03,5.75,4.64,5.81h1.16v2.32h-1.16c-3.77-.06-6.97-3.02-6.97-8.13v-18.58h-3.48v-2.32h3.48v-10.39h2.44l-.06,1.16-.02,9.23h5.77v2.32h-5.77ZM299.27,178.39h-1.16v-2.32h2.38v2.32h-1.22ZM298.11,186.17v-1.16h2.32v29.03h-2.32v-27.87ZM321.34,186.57l-.52-1.57h2.44l.29.75,8.24,23.57,8.13-23.57.29-.75h2.44l-.52,1.57-9.23,26.71-.29.75h-1.63l-.29-.75-9.35-26.71ZM379.33,205.96v-1.16h2.32v1.16c0,4.41-4.82,8.13-10.45,8.07-5.57,0-10.39-3.6-10.39-8.07l-.02-5.28h-.03v-2.32h.02l-.02-5.22c0-4.47,4.93-8.07,10.45-8.13,5.57,0,10.51,3.72,10.45,8.13v7.55h-18.55l-.02,5.22c0,3.31,3.43,5.86,8.13,5.81,4.76,0,8.13-2.5,8.13-5.75ZM363.11,198.36l16.28.05-.06-5.28c0-3.31-3.31-5.75-8.13-5.81-4.76,0-8.07,2.56-8.07,5.86l-.02,5.17Z"/>
</svg>